<svg xmlns="http://www.w3.org/2000/svg" width="200" height="52" fill="none"><g clip-path="url(#a)"><path fill="#fff" d="M.237 51.111h2.925v-3.198h1.62c2.458 0 4.104-1.447 4.104-3.767 0-2.294-1.604-3.81-3.998-3.81H.238v10.775Zm2.925-5.471v-2.967h1.032c1.025 0 1.641.547 1.641 1.473 0 .92-.616 1.494-1.641 1.494H3.162ZM9.96 51.111h2.925v-3.556h1.01l1.894 3.556h3.178l-2.189-4.019c1.147-.552 1.83-1.6 1.83-3.093 0-2.294-1.604-3.662-3.997-3.662H9.96V51.11Zm2.925-5.829v-2.61h1.031c1.026 0 1.642.4 1.642 1.327 0 .92-.616 1.283-1.642 1.283h-1.03ZM22.654 51.111l.62-2.062h3.557l.62 2.062h3.157l-3.556-10.774h-3.998L19.497 51.11h3.157Zm1.283-4.25 1.074-3.557h.084l1.073 3.556h-2.23ZM41.199 44.377c-.232-2.672-2.189-4.188-4.904-4.188-2.904 0-5.197 1.937-5.197 5.535 0 3.583 2.23 5.534 5.197 5.534 3.157 0 4.756-2.188 4.904-4.019l-2.968-.021c-.147.92-.8 1.494-1.872 1.494-1.426 0-2.252-1.01-2.252-2.988 0-1.873.8-2.988 2.273-2.988 1.125 0 1.767.663 1.851 1.641H41.2ZM42.231 42.694h3.241v8.417h2.883v-8.417h3.241v-2.357h-9.365v2.357ZM55.621 40.337h-2.925V51.11h2.925V40.337ZM67.067 44.377c-.232-2.672-2.189-4.188-4.903-4.188-2.904 0-5.198 1.937-5.198 5.535 0 3.583 2.23 5.534 5.198 5.534 3.156 0 4.755-2.188 4.903-4.019l-2.967-.021c-.148.92-.8 1.494-1.873 1.494-1.426 0-2.252-1.01-2.252-2.988 0-1.873.8-2.988 2.273-2.988 1.126 0 1.768.663 1.852 1.641h2.967ZM74.77 40.337v6.65c0 1.005-.72 1.725-1.725 1.725-1.005 0-1.725-.72-1.725-1.725v-6.65h-2.925v6.902c0 2.462 1.862 3.999 4.65 3.999 2.767 0 4.651-1.537 4.651-3.999v-6.902h-2.925ZM79.086 40.337V51.11h2.861v-6.27h.085l2.4 6.186h1.724l2.4-6.145h.083v6.23h2.862V40.336h-3.64l-2.504 6.103h-.127l-2.504-6.103h-3.64ZM98.638 51.111l.62-2.062h3.557l.621 2.062h3.157l-3.557-10.774h-3.998L95.48 51.11h3.157Zm1.283-4.25 1.074-3.557h.084l1.074 3.556h-2.232ZM107.63 51.111h2.925v-3.556h1.01l1.894 3.556h3.178l-2.189-4.019c1.147-.552 1.831-1.6 1.831-3.093 0-2.294-1.605-3.662-3.999-3.662h-4.65V51.11Zm2.925-5.829v-2.61h1.031c1.026 0 1.642.4 1.642 1.327 0 .92-.616 1.283-1.642 1.283h-1.031ZM117.231 42.694h3.241v8.417h2.883v-8.417h3.241v-2.357h-9.365v2.357ZM137.645 43.893h2.956c-.226-2.162-2.188-3.703-4.735-3.703-2.903 0-5.261 1.999-5.261 5.555 0 3.41 2.137 5.513 5.283 5.513 2.82 0 4.84-1.725 4.84-4.671v-1.494h-4.777v2.083h1.957c-.026.936-.689 1.536-2 1.536-1.514 0-2.293-1.115-2.293-3.01 0-1.867.842-2.966 2.315-2.966.915 0 1.536.42 1.715 1.157ZM144.558 51.111l.62-2.062h3.557l.621 2.062h3.156l-3.556-10.774h-3.998l-3.557 10.774h3.157Zm1.283-4.25 1.074-3.557h.084l1.073 3.556h-2.231ZM153.551 51.111h7.281v-2.356h-4.356v-8.418h-2.925V51.11ZM162.014 51.111h7.28v-2.356h-4.355v-8.418h-2.925V51.11ZM170.478 51.111h7.743v-2.356h-4.819v-1.852h4.441v-2.357h-4.441v-1.852h4.84v-2.357h-7.764V51.11ZM179.693 51.111h2.926v-3.556h1.009l1.894 3.556h3.178l-2.189-4.019c1.148-.552 1.831-1.6 1.831-3.093 0-2.294-1.604-3.662-3.998-3.662h-4.651V51.11Zm2.926-5.829v-2.61h1.031c1.026 0 1.641.4 1.641 1.327 0 .92-.615 1.283-1.641 1.283h-1.031ZM188.641 40.337l3.956 7.386v3.388h2.904v-3.388l3.956-7.386h-3.262l-2.104 4.377h-.084l-2.104-4.377h-3.262Z"/><path fill="#0278FE" d="M87.407 1.481C87.407.663 88.07 0 88.89 0h20.74c.819 0 1.482.663 1.482 1.481v20.741c0 .818-.663 1.482-1.482 1.482h-20.74a1.481 1.481 0 0 1-1.482-1.482V1.482Z"/><path fill="#2A2C2F" d="M111.111 4.444H87.407v1.482h23.704V4.444Z"/><path fill="#2A2C2F" d="M97.037 4.444h-1.481v19.26h1.481V4.444Z"/></g><defs><clipPath id="a"><path fill="#fff" d="M0 0h200v51.852H0z"/></clipPath></defs></svg>